<?xml version="1.0" standalone="no"?>
<!DOCTYPE svg PUBLIC "-//W3C//DTD SVG 20010904//EN"
 "http://www.w3.org/TR/2001/REC-SVG-20010904/DTD/svg10.dtd">
<svg version="1.0" xmlns="http://www.w3.org/2000/svg"
 width="500.000000pt" height="500.000000pt" viewBox="0 0 500.000000 500.000000"
 preserveAspectRatio="xMidYMid meet">
<metadata>
Created by potrace 1.14, written by Peter Selinger 2001-2017
</metadata>
<g transform="translate(0.000000,500.000000) scale(0.100000,-0.100000)"
fill="#000000" stroke="none">
<path d="M1406 3798 c-47 -13 -168 -124 -199 -182 -27 -52 -28 -137 -3 -186
10 -19 179 -197 376 -395 406 -410 404 -407 405 -550 0 -64 -5 -89 -24 -125
-15 -29 -147 -170 -381 -405 -197 -198 -366 -376 -376 -395 -25 -49 -24 -134
3 -185 25 -47 124 -144 173 -170 37 -20 106 -25 155 -12 21 6 163 141 475 452
427 425 447 443 490 450 64 10 86 24 162 102 68 69 98 121 98 170 0 15 5 52
11 82 24 117 56 77 -599 734 -323 324 -599 595 -614 603 -38 20 -105 25 -152
12z"/>
<path d="M2546 3798 c-47 -13 -168 -124 -199 -182 -27 -52 -28 -137 -3 -186
10 -19 181 -199 381 -400 407 -410 400 -401 400 -540 0 -126 -3 -129 -405
-535 -197 -198 -366 -376 -376 -395 -25 -49 -24 -134 3 -185 25 -47 124 -144
173 -170 37 -20 106 -25 155 -12 21 6 164 142 480 458 389 387 454 448 475
444 40 -8 102 31 177 108 68 70 93 115 93 171 0 11 5 45 11 75 24 117 56 77
-599 734 -323 324 -599 595 -614 603 -38 20 -105 25 -152 12z"/>
</g>
</svg>
